<svg version="1.1" id="Layer_1" xmlns="http://www.w3.org/2000/svg" xmlns:xlink="http://www.w3.org/1999/xlink" x="0px" y="0px"
	 width="100%" viewBox="0 0 1024 1024" enable-background="new 0 0 1024 1024" xml:space="preserve">
<path fill="#000000" opacity="1.000000" stroke="none" 
	d="
M435.049591,422.973755 
	C426.020020,426.483002 424.443939,443.932098 432.038910,451.157104 
	C439.716522,458.460693 449.212097,460.262146 458.960938,461.654022 
	C478.534119,464.448608 497.680603,462.458160 516.776489,457.316132 
	C532.485962,453.085999 548.207886,455.020996 563.267578,461.024170 
	C568.182922,462.983612 572.708069,463.363678 577.715698,461.683899 
	C585.594177,459.041168 592.721008,455.318115 598.441406,449.170929 
	C603.301575,443.948212 605.984070,437.907288 605.790527,430.646729 
	C605.732788,428.479370 604.905457,426.011383 607.707642,423.460632 
	C611.003174,430.118774 610.177124,436.148682 607.733826,442.169556 
	C605.225647,448.350525 601.070007,453.279510 595.716370,457.201355 
	C590.478821,461.038208 584.557983,463.567627 577.762085,465.889832 
	C593.023560,472.223480 608.235229,475.602448 623.731873,477.446808 
	C647.701111,480.299500 671.292786,478.435303 693.971497,469.567200 
	C708.442749,463.908447 721.008850,455.372375 731.855103,443.241119 
	C720.427979,434.075287 715.564941,419.819061 702.950562,411.703125 
	C706.579773,408.880585 708.199463,410.919464 709.801331,412.044281 
	C715.511108,416.053619 719.325867,421.766968 723.170593,427.417816 
	C725.426025,430.732605 727.778564,433.948944 730.684082,436.734680 
	C733.317322,439.259369 735.215149,438.977753 736.604614,435.448212 
	C739.093445,429.126068 740.423523,422.725494 738.422424,416.006165 
	C737.549683,413.075562 737.653503,410.070801 737.675171,407.075989 
	C737.687073,405.428925 737.541321,403.409241 739.699402,403.056946 
	C741.997375,402.681793 742.881531,404.527588 743.351929,406.372925 
	C745.338135,414.165985 744.439514,421.905792 742.675415,429.588226 
	C742.155823,431.850983 741.300171,434.038757 740.561890,436.248657 
	C738.964783,441.029266 739.943176,442.374023 745.069641,441.477081 
	C751.616577,440.331604 758.109192,438.844635 764.586731,437.339264 
	C783.627380,432.914337 802.920837,431.149841 822.450867,430.484985 
	C839.629822,429.900177 856.756836,430.754242 873.906982,430.770081 
	C880.884094,430.776520 887.875549,431.383972 894.826904,432.062531 
	C896.618286,432.237396 900.101074,431.745453 899.627686,434.880737 
	C899.259644,437.318268 896.263489,436.340027 894.455261,436.202026 
	C873.848938,434.629639 853.212402,434.226471 832.556580,434.324127 
	C805.999573,434.449707 779.756470,437.112915 753.979187,443.750092 
	C751.250671,444.452637 748.320068,445.471802 745.654419,445.103729 
	C738.563904,444.124634 734.030273,447.064850 729.000122,451.969818 
	C710.784119,469.732269 688.075928,478.283691 663.157959,481.303345 
	C633.823181,484.858307 605.419250,480.602142 577.855469,470.302582 
	C561.243530,464.095337 547.237000,470.545441 533.495850,478.853760 
	C537.119446,479.075165 540.659119,478.475220 544.203796,478.998169 
	C558.642883,481.128479 566.846130,491.068481 567.276733,507.045532 
	C567.580994,518.332764 563.352844,528.230957 557.482117,537.500610 
	C547.813171,552.767761 534.952576,565.027344 520.640442,575.866516 
	C519.579468,576.670105 518.526123,577.488220 517.523926,578.362427 
	C517.167542,578.673279 516.974060,579.170898 516.690430,579.607605 
	C517.330261,581.671570 519.314636,582.083618 520.823608,582.959656 
	C527.896362,587.065674 535.329712,590.416687 542.956299,593.363464 
	C544.655457,594.020020 547.701416,594.248535 546.583130,596.968872 
	C545.512024,599.574463 543.029419,597.807312 541.362732,597.108521 
	C533.068298,593.631165 524.690063,590.272400 517.129028,585.318787 
	C513.550537,582.974365 510.691467,582.743530 506.825104,585.348999 
	C495.579346,592.927368 483.126373,598.167786 470.337646,602.601196 
	C468.664886,603.181091 467.022797,603.849548 464.742554,604.713257 
	C483.412292,614.093872 501.903046,617.273438 521.853088,612.290344 
	C544.005981,606.757080 566.361206,607.066650 588.562744,612.704285 
	C589.690430,612.990662 590.799561,613.363953 591.896606,613.755066 
	C607.988831,619.491760 614.445496,628.801392 614.054871,646.097961 
	C618.389343,644.951172 621.150757,641.137146 625.142212,639.902283 
	C631.640198,637.892029 635.222534,634.029053 637.266113,627.243958 
	C639.865784,618.612305 645.058960,611.036804 651.727478,604.768616 
	C653.759155,602.858948 653.557068,600.702087 653.681885,598.391357 
	C654.382751,585.422241 656.922852,572.986633 664.406311,562.006042 
	C668.239319,556.381897 673.382141,552.452454 680.077576,551.306519 
	C687.404846,550.052429 694.133301,552.323547 693.381836,561.878479 
	C693.303894,562.868958 693.371399,563.870850 693.371399,566.190186 
	C694.849976,563.875549 695.763550,562.517517 696.604797,561.116028 
	C700.057739,555.363342 704.119202,550.122559 709.270691,545.768188 
	C715.074951,540.862000 721.813843,538.983276 729.270874,539.785278 
	C739.372253,540.871704 743.446899,547.104004 740.687927,556.944214 
	C739.692017,560.496277 738.265259,563.858459 736.313416,566.988647 
	C735.327026,568.570557 735.276306,569.976257 736.473083,571.567627 
	C737.723267,573.229919 739.133850,573.221497 740.873413,572.702576 
	C745.223511,571.404724 749.602539,570.908752 754.176575,571.613770 
	C766.613159,573.530579 771.876343,583.912170 765.646606,594.810242 
	C762.577087,600.179993 758.692078,605.021301 754.284119,609.343018 
	C750.332214,613.217651 747.096497,617.351562 744.595398,622.424255 
	C739.483948,632.790771 731.754089,641.462402 724.431946,650.304565 
	C709.876221,667.882446 694.973389,685.177856 681.645386,703.732910 
	C676.301270,711.172913 669.083557,716.128662 660.768860,719.452087 
	C639.745361,727.855347 618.665588,736.121155 597.543091,744.272827 
	C581.743530,750.370239 567.453735,759.282837 552.998840,767.862732 
	C540.964905,775.005676 528.494934,776.557739 515.098267,772.705139 
	C497.843079,767.742981 480.880920,761.662170 463.067841,758.779541 
	C434.007202,754.076721 405.429199,746.641235 376.234100,742.851807 
	C361.548737,740.945801 346.608032,741.890686 331.854736,743.532959 
	C301.858917,746.872131 272.427948,753.137146 243.557983,761.863892 
	C209.904388,772.036621 176.857193,783.930664 144.592728,797.946594 
	C134.205368,802.458923 123.784538,806.894348 113.367073,811.336975 
	C111.992104,811.923340 110.560165,812.389343 109.128532,812.825562 
	C107.974060,813.177368 106.711525,813.355652 106.173645,811.908813 
	C105.621117,810.422424 106.816704,809.790588 107.864555,809.310608 
	C112.709816,807.091370 117.555069,804.868103 122.451164,802.764587 
	C163.323456,785.204773 204.670227,768.916016 247.462006,756.557190 
	C277.401642,747.910278 307.835968,741.756592 338.891327,738.841797 
	C360.961609,736.770264 382.676300,738.891296 404.326782,743.507446 
	C429.843140,748.947754 455.535309,753.558350 481.111908,758.723633 
	C494.987366,761.525879 508.012085,767.500854 521.962708,770.075317 
	C530.025818,771.563171 537.843567,770.827759 545.347900,767.254517 
	C553.493713,763.375732 561.021545,758.427795 568.791382,753.903137 
	C590.377197,741.332947 614.007690,733.578857 637.145081,724.653015 
	C646.620117,720.997742 656.204346,717.602173 665.201538,712.797546 
	C669.523438,710.489685 673.505554,707.759583 676.378967,703.763062 
	C694.196960,678.980225 714.994812,656.578369 733.411804,632.276245 
	C738.775452,625.198669 743.114685,617.835144 744.848022,608.772949 
	C746.459900,600.345459 752.050537,593.504578 756.965942,586.577148 
	C758.443665,584.494507 761.074158,583.959045 763.297119,583.025635 
	C760.595398,576.606689 753.478577,573.750610 745.444092,575.610840 
	C741.743713,576.467651 738.665405,577.906677 737.443115,582.114929 
	C736.715881,584.618774 735.353882,587.095337 733.733826,589.157043 
	C723.804749,601.792480 716.632690,616.003296 709.401917,630.244812 
	C704.411255,640.074036 696.527527,648.040283 690.458252,657.206055 
	C682.916626,668.595459 675.277832,679.924683 667.956970,691.455078 
	C661.353149,701.856384 652.066650,708.522583 640.933044,713.479797 
	C617.795410,723.781860 594.079102,732.622986 570.628845,742.132996 
	C563.202087,745.144897 556.051575,748.640808 549.229553,752.877014 
	C534.604370,761.958740 519.274536,764.469543 503.082367,757.214722 
	C499.738647,755.716492 499.761810,755.664795 499.013153,752.513489 
	C500.724731,751.083252 502.180298,752.456116 503.553345,753.108948 
	C516.498413,759.263184 529.672058,759.591248 541.873108,752.205139 
	C562.874023,739.491760 586.178223,732.301514 608.527771,722.816345 
	C621.702576,717.224854 635.217529,712.388855 647.816101,705.499451 
	C653.445068,702.421326 658.269897,698.354126 661.871887,692.982544 
	C675.601379,672.508240 689.080383,651.866272 703.605408,631.931396 
	C708.832947,624.756897 712.166260,616.518433 715.619568,608.383545 
	C716.295837,606.790527 716.066101,605.141113 716.320740,603.555115 
	C718.181946,591.961182 720.760925,580.659363 732.251526,573.546326 
	C731.113403,570.659607 728.521118,569.635010 725.448608,569.267395 
	C717.937927,568.368835 711.186768,570.413696 705.291443,574.966431 
	C694.197571,583.533813 685.475342,594.147949 678.820557,606.478821 
	C677.134827,609.602478 676.605591,612.372375 680.257324,614.598999 
	C681.188416,615.166748 681.849915,616.297363 682.432983,617.288391 
	C683.405090,618.940796 683.946777,620.879944 682.494263,622.390259 
	C680.981262,623.963501 679.376953,622.549438 677.997742,621.758606 
	C670.483765,617.450500 670.534302,617.480286 663.481445,622.775269 
	C652.273743,631.189453 643.656616,641.974915 635.473694,653.161621 
	C632.844482,656.755981 631.471436,660.223267 635.437561,664.135254 
	C637.614929,666.282898 638.012817,669.519470 637.148987,672.596497 
	C636.855957,673.640381 635.818848,674.177429 634.734375,673.807617 
	C631.593445,672.736267 629.531555,670.170959 629.180969,667.233276 
	C628.595032,662.324646 625.800598,661.664062 621.912659,662.247437 
	C602.696838,665.130920 584.105591,670.003906 567.113525,679.810974 
	C564.755859,681.171753 562.911926,683.099670 562.395386,685.962280 
	C562.306763,686.453308 562.231384,686.962402 562.039795,687.416687 
	C560.833191,690.278564 559.237122,692.771912 555.797729,693.186218 
	C554.533997,693.338501 553.415222,692.813538 553.007751,691.553955 
	C552.025208,688.516418 553.940308,686.537598 555.731262,684.520630 
	C556.370972,683.800232 556.890198,682.972778 557.378418,682.310852 
	C556.799194,680.281494 555.159729,679.803345 553.814087,679.613586 
	C541.574036,677.887512 529.320679,676.702942 517.282898,680.873474 
	C512.459167,682.544617 508.800110,684.905151 508.762787,691.027466 
	C508.735596,695.486450 507.201630,699.879333 504.476135,703.629089 
	C503.491364,704.983887 502.343384,706.450195 500.387238,705.661011 
	C498.750122,705.000427 498.716614,703.365295 498.657135,701.821655 
	C498.462158,696.763184 500.466553,692.296387 502.919220,688.168945 
	C505.143860,684.425415 504.272064,682.169250 500.984039,679.872437 
	C495.613495,676.120911 489.686676,673.481934 483.790588,670.762695 
	C480.840424,669.402039 478.301147,670.641235 475.815094,672.180054 
	C467.179291,677.525208 458.662933,683.078125 448.887817,686.282043 
	C444.902527,687.588257 440.859161,688.456726 436.707275,688.829590 
	C434.778900,689.002686 432.990173,688.462463 432.134277,686.509766 
	C431.252380,684.497803 432.279968,682.946533 433.732605,681.674316 
	C437.308014,678.543091 441.695343,676.838501 445.974731,675.019409 
	C470.932617,664.410461 496.939423,661.776123 523.788452,664.248169 
	C541.251465,665.856018 558.722900,664.466919 576.095337,662.208740 
	C581.703308,661.479858 587.296082,660.616882 592.876282,659.696838 
	C596.361145,659.122253 599.609985,657.861328 602.712158,655.317871 
	C603.010132,655.009766 603.159424,654.869690 603.159424,654.869690 
	C614.629456,645.259155 611.746948,627.966248 597.261292,620.396790 
	C588.728455,615.938049 579.392395,614.351440 569.905090,613.261292 
	C552.306519,611.239014 535.032776,612.913025 517.911194,617.098755 
	C501.705536,621.060669 486.109253,618.512939 471.119568,611.973022 
	C463.639160,608.709351 456.840088,605.460266 448.705658,610.805908 
	C439.420776,616.907532 432.076752,624.109192 429.651306,635.310059 
	C429.268585,637.077637 429.434357,638.958923 429.274414,640.781311 
	C429.135437,642.364380 429.613495,644.213806 427.647705,645.124023 
	C423.664795,641.363159 425.323547,630.586426 431.215424,621.484619 
	C436.058655,614.002686 443.160706,609.185486 451.756775,604.789185 
	C443.818604,601.048462 436.323669,599.237610 428.709381,597.921753 
	C399.510223,592.875854 370.657684,593.356140 342.712250,604.390625 
	C326.136627,610.935608 312.289154,621.430359 300.760132,635.032104 
	C298.335510,637.892639 298.017700,640.015625 301.444885,642.309204 
	C304.247253,644.184509 305.984497,647.141357 307.854370,649.906860 
	C312.827148,657.261414 318.188507,664.241638 325.979858,668.924133 
	C327.223511,669.671631 328.944580,670.640869 327.624329,672.380554 
	C326.453735,673.922974 324.793488,672.926331 323.590332,672.104187 
	C316.640808,667.355530 310.688904,661.606445 306.116730,654.475647 
	C303.516266,650.419861 300.818604,646.416016 296.034027,643.394836 
	C292.159821,651.205750 290.306488,659.024231 291.857666,667.475708 
	C292.547119,671.232117 293.593323,674.926208 294.201569,678.693176 
	C294.486755,680.459351 294.427124,682.704956 292.126862,683.205627 
	C289.697357,683.734375 289.140503,681.595764 288.620148,679.840149 
	C285.324615,668.720947 286.486542,657.783447 290.036102,646.952576 
	C290.543976,645.402832 291.614410,643.998291 291.274536,641.972534 
	C288.449707,639.707031 285.161011,640.264709 281.893036,640.836182 
	C267.273834,643.392517 253.325699,648.544983 238.915695,651.940308 
	C213.311844,657.973145 187.521011,662.695862 161.333633,665.486633 
	C140.792938,667.675537 120.225494,669.046021 99.604172,669.875244 
	C98.439117,669.922119 97.265778,669.974915 96.106026,669.890808 
	C94.476677,669.772583 92.328903,669.881104 92.377487,667.601074 
	C92.419998,665.605957 94.444061,665.696106 95.885696,665.741882 
	C110.073471,666.192688 124.165047,664.587158 138.269775,663.591431 
	C162.336700,661.892578 186.236053,658.693970 209.946518,654.173950 
	C229.898544,650.370361 249.522278,645.226807 269.030243,639.621033 
	C276.431854,637.494202 283.872711,635.726013 291.630798,637.228699 
	C293.697296,637.629089 294.654968,636.525208 295.724487,635.148254 
	C317.124969,607.597168 346.124603,594.879211 380.116699,591.588379 
	C406.268127,589.056702 431.578583,592.121948 456.049622,601.773743 
	C457.299164,602.266541 458.478394,602.728333 459.887787,602.198059 
	C476.081482,596.105774 492.518372,590.546387 507.665070,580.073242 
	C503.430145,576.993469 499.522919,574.096741 495.559296,571.279480 
	C481.257996,561.114380 469.142639,548.818909 460.067688,533.782471 
	C453.958435,523.659973 450.230103,512.846375 451.520294,500.581177 
	C453.372894,482.969849 469.934723,470.214569 487.684967,472.986969 
	C499.790588,474.877747 508.983337,481.011047 515.651611,491.527893 
	C522.763794,485.929077 526.890015,477.930176 534.294250,473.150238 
	C541.756470,468.332886 549.980042,466.027069 559.906677,464.156525 
	C552.524536,461.577148 546.332581,459.807831 539.754456,459.291077 
	C528.255981,458.387817 517.281067,460.963562 506.284393,463.789520 
	C486.852448,468.783203 467.395325,468.009583 447.944183,463.682556 
	C437.550323,461.370361 429.072144,456.454102 424.139526,446.438477 
	C419.631409,448.568268 416.512543,451.875763 413.132568,454.737885 
	C402.802887,463.485016 392.111755,471.688324 379.952637,477.751251 
	C377.154297,479.146606 375.888184,481.597260 374.413574,483.964783 
	C368.485138,493.482971 362.658112,503.555664 352.750824,509.073761 
	C342.827423,514.600769 336.050232,522.026917 330.083435,531.499451 
	C323.912537,541.296021 314.516541,547.991394 302.094604,548.355103 
	C292.305115,548.641785 288.974091,546.156433 285.907745,536.816589 
	C280.700348,536.457581 275.351532,536.373352 270.714905,533.148987 
	C265.650085,529.626831 264.376434,525.812439 267.123871,520.288879 
	C270.801575,512.895142 276.500580,506.970520 281.909088,500.871277 
	C284.876282,497.525116 287.858246,494.237640 289.910095,489.563354 
	C282.148590,492.092163 274.713013,493.493683 267.053650,491.290436 
	C264.455048,490.542969 262.055695,489.425934 259.912598,487.803345 
	C253.983017,483.313995 253.185242,477.049164 257.943481,471.295746 
	C262.995392,465.187256 269.496155,460.760498 275.967102,456.344086 
	C278.612579,454.538574 280.893555,452.527222 282.710815,449.811829 
	C287.716949,442.331482 295.201508,437.400543 301.978943,431.778473 
	C320.700043,416.248749 340.206421,401.676392 358.314575,385.395782 
	C370.162720,374.743347 385.188538,370.412964 399.573669,364.679932 
	C423.357513,355.201172 447.941528,347.455200 469.736328,333.484985 
	C477.449280,328.541138 485.109131,323.513184 492.863708,318.635712 
	C504.159210,311.531067 516.534790,309.373291 529.303650,312.763000 
	C562.358948,321.538025 596.201965,325.661621 629.905640,330.674042 
	C645.850342,333.045349 661.673401,336.089111 677.829224,337.153931 
	C692.236511,338.103546 706.472351,336.873871 720.642822,335.110718 
	C781.099243,327.588623 838.927307,309.745636 896.173950,289.720001 
	C897.966309,289.093018 900.319336,287.603516 901.229431,290.441742 
	C902.043579,292.980377 899.380493,293.123322 897.757385,293.677765 
	C855.853394,307.991211 813.775574,321.752747 770.333801,330.730896 
	C740.497498,336.897186 710.543701,342.375916 679.837219,341.299500 
	C664.152283,340.749634 648.808594,337.656616 633.355164,335.333649 
	C612.808044,332.244934 592.155884,329.787628 571.692383,326.232666 
	C555.978516,323.502808 540.502258,319.422333 524.890625,316.080933 
	C514.062439,313.763336 503.824951,315.898315 494.833923,322.052551 
	C461.017151,345.199646 424.784515,363.868866 387.429291,380.449432 
	C375.982727,385.530212 367.715546,393.387848 361.377167,404.164825 
	C348.961121,425.275604 333.898376,444.698273 321.290253,465.712982 
	C314.999084,476.198853 310.209839,487.281067 306.486877,498.933289 
	C304.367920,505.565308 307.366730,512.221985 305.389648,518.731689 
	C304.716309,520.948608 304.597687,523.330872 303.966888,525.564514 
	C302.130798,532.066101 300.115021,538.493347 291.696411,540.343750 
	C296.435455,545.287231 301.765381,544.205872 306.657654,543.517273 
	C316.560669,542.123474 330.169250,528.927673 332.705688,518.757935 
	C329.625305,518.285034 326.498138,518.036743 323.490967,517.299133 
	C315.064362,515.232178 312.045502,508.757751 315.823517,500.891418 
	C317.116364,498.199524 318.711792,495.631042 320.371521,493.141205 
	C326.729767,483.602966 333.759888,474.504913 337.707123,463.505554 
	C339.452698,458.641296 342.852173,454.564026 346.033844,450.496490 
	C359.610596,433.139648 371.126343,414.385895 383.035461,395.904694 
	C387.886230,388.376984 394.286377,382.975372 402.291504,379.034149 
	C423.819824,368.434845 445.824310,358.888977 467.670990,348.991516 
	C478.636658,344.023590 488.774323,337.665039 498.555359,330.641327 
	C512.686707,320.493713 527.981445,317.990662 544.369629,324.746429 
	C545.906799,325.380096 547.432068,326.069458 548.884338,326.874664 
	C550.195374,327.601532 551.779785,328.531708 550.718628,330.330048 
	C549.638672,332.160339 548.168701,331.050568 546.831238,330.353821 
	C540.372375,326.989349 533.502747,325.420837 526.210876,325.219421 
	C517.679077,324.983795 509.766571,327.381561 503.230225,332.368652 
	C483.496246,347.425201 460.755951,356.512329 438.386047,366.452484 
	C425.454529,372.198700 412.610596,378.172424 400.164337,384.946594 
	C394.777649,387.878418 390.491669,391.918365 387.169342,397.088715 
	C374.023468,417.546844 360.872864,437.988098 346.103333,457.361481 
	C340.868774,464.227753 337.513000,472.129395 336.542938,481.141022 
	C335.279877,492.874756 331.076233,503.461304 319.550446,510.205841 
	C324.865570,515.526001 330.894897,514.302551 336.534973,513.044556 
	C344.020325,511.374908 350.316223,507.094940 355.697174,501.762115 
	C365.128906,492.414764 372.464081,481.604309 377.374054,469.206146 
	C375.335266,467.373932 373.368988,465.850922 371.718170,464.040344 
	C370.552917,462.762299 370.083496,460.957092 371.509888,459.524384 
	C372.789032,458.239563 374.287872,458.942291 375.640106,459.703949 
	C375.929932,459.867188 376.218658,460.033966 376.496948,460.215912 
	C383.665894,464.903351 383.602478,464.828522 390.329712,459.182434 
	C400.354340,450.768799 409.039917,441.178558 416.391083,430.354828 
	C418.928711,426.618500 420.645233,423.045654 415.836548,419.740173 
	C415.571655,419.558105 415.362335,419.263214 415.191132,418.981903 
	C413.730347,416.581970 411.312286,413.582520 414.285156,411.499725 
	C417.524658,409.230103 419.781403,412.576660 421.368805,415.020203 
	C426.040314,422.211334 426.562988,422.547791 434.510254,418.466919 
	C442.061523,414.589417 450.273346,413.391998 458.430603,411.738831 
	C467.986969,409.802094 475.476288,403.696259 483.379517,398.499268 
	C484.446289,397.797791 484.563507,396.589355 484.768616,395.416321 
	C485.054871,393.779541 485.299835,392.087128 485.927429,390.569427 
	C486.966156,388.057587 488.587585,385.120392 491.634155,386.241089 
	C494.917023,387.448700 493.555817,390.799255 492.807404,393.221252 
	C492.236542,395.068665 490.914764,396.684021 490.031921,398.220123 
	C490.457184,399.697418 491.537354,399.944427 492.474426,400.050171 
	C503.757568,401.323700 515.028992,402.102356 526.105103,398.580078 
	C531.165527,396.970856 534.434448,394.007812 534.523132,388.235870 
	C534.585327,384.193726 535.773193,380.338440 537.707397,376.786835 
	C538.831848,374.722015 540.288391,372.458313 543.072632,373.355316 
	C545.673828,374.193359 545.417725,376.794159 545.161011,378.920929 
	C544.616577,383.430695 543.312927,387.775909 540.702148,391.518707 
	C538.482483,394.700836 539.328308,396.997986 541.963562,399.279419 
	C546.792969,403.460266 551.984192,404.086853 557.707764,401.278900 
	C565.784729,397.316406 573.082458,391.924774 581.445068,388.477600 
	C585.309265,386.884705 589.182617,385.363190 593.347046,384.878540 
	C595.561707,384.620758 597.924194,384.921265 598.847839,387.324127 
	C599.804626,389.813385 597.618164,391.076782 595.962769,391.933502 
	C578.036377,401.211639 559.924438,409.824280 539.279297,411.439941 
	C528.088928,412.315735 516.983582,411.121918 505.834991,411.238892 
	C485.109924,411.456421 464.742310,414.510315 444.498688,418.589630 
	C441.272949,419.239655 438.037506,420.271545 435.207458,422.750916 
	C435.009674,423.003632 435.049591,422.973755 435.049591,422.973755 
M496.546967,566.924561 
	C500.604919,569.831848 504.712677,572.673096 508.698425,575.676208 
	C510.510834,577.041748 511.948334,577.448181 513.984863,575.915771 
	C530.996948,563.114685 546.789856,549.137695 557.046631,530.066956 
	C561.825623,521.181274 564.919006,511.822266 562.738220,501.372406 
	C559.993591,488.220001 549.876953,481.429047 536.278931,483.282440 
	C524.664001,484.865509 519.323975,494.905975 520.988953,507.988892 
	C521.573486,512.581787 521.908325,517.283630 520.383972,521.841797 
	C519.421265,524.720337 518.500183,528.087097 514.850525,528.028259 
	C510.979645,527.965820 509.879761,524.465881 509.220123,521.365112 
	C507.801300,514.695557 507.994965,507.702698 510.984802,501.804657 
	C514.377563,495.111847 511.380676,491.259277 507.281067,487.073395 
	C504.575623,484.310974 501.543091,481.990570 498.074158,480.298553 
	C477.435913,470.231995 453.445404,482.900513 455.153687,506.872009 
	C455.887787,517.173340 459.656036,526.230835 465.343262,534.597229 
	C473.741547,546.951660 483.942993,557.617676 496.546967,566.924561 
M404.285370,367.812958 
	C402.159943,367.266144 400.551971,368.723755 398.800537,369.385406 
	C384.478790,374.795715 370.092834,379.956207 358.396454,390.572845 
	C339.522949,407.703949 319.106781,422.993744 299.352753,439.072083 
	C291.485352,445.475525 284.948334,452.579132 280.567230,461.955658 
	C276.360901,470.958130 270.309692,478.680573 259.204956,479.884705 
	C261.230713,485.521973 268.490356,489.017822 275.679413,488.343414 
	C294.528229,486.575226 308.791809,476.180878 318.750397,461.524994 
	C332.957184,440.617218 347.592010,419.923859 360.460815,398.114288 
	C365.536133,389.512909 372.542603,383.139221 381.494659,378.851562 
	C388.994049,375.259674 396.527557,371.739105 404.285370,367.812958 
M683.248108,555.082092 
	C677.588257,554.924011 673.419739,557.873108 669.836426,561.770691 
	C662.507019,569.742920 660.249573,579.826843 658.332520,590.035034 
	C657.351257,595.260315 656.184265,600.503540 662.757507,603.173157 
	C662.843872,603.208191 662.833557,603.481201 662.954651,604.044434 
	C645.347046,610.380981 641.488037,625.879333 637.260681,641.922058 
	C638.524658,641.841797 638.756592,641.895752 638.826538,641.812927 
	C648.318481,630.576904 658.385254,619.992554 671.314880,612.557434 
	C672.221313,612.036255 673.081848,610.850159 673.307251,609.828430 
	C674.448669,604.655212 677.747253,600.549011 679.851135,595.880798 
	C682.437439,590.142212 686.474731,584.749451 684.650146,577.616028 
	C682.756287,570.211670 682.709900,562.816650 687.890320,556.523499 
	C686.744019,554.955566 685.285645,555.344238 683.248108,555.082092 
M561.972351,678.267090 
	C580.714417,666.134827 601.908752,661.343140 623.520264,658.026855 
	C630.612793,656.938599 636.058960,648.134277 632.961304,640.981628 
	C624.905823,643.497620 617.921143,648.155945 611.659607,653.459351 
	C604.270569,659.717773 596.158997,663.626221 586.723267,665.015015 
	C582.289368,665.667664 577.809814,666.004395 573.366821,666.602112 
	C553.339294,669.296631 533.285034,669.513855 513.167114,667.667786 
	C505.170807,666.934021 497.135162,667.133423 487.735870,667.659912 
	C495.076385,672.169067 501.866241,674.708923 507.169067,679.619080 
	C508.212738,680.585449 509.355988,680.030640 510.431549,679.547913 
	C527.227783,672.008789 544.197021,672.453003 561.972351,678.267090 
M280.764160,519.246704 
	C278.304810,523.081848 274.866486,525.395874 269.585327,525.686890 
	C272.694946,531.604553 277.903656,531.934998 282.889038,532.659973 
	C286.123566,533.130371 288.078308,531.949707 289.315216,528.688049 
	C291.137970,523.881470 293.071381,519.002014 295.781982,514.669250 
	C303.022430,503.095642 304.218719,489.325470 310.068542,477.109009 
	C305.577545,479.891632 301.117401,482.617706 297.704498,486.311401 
	C294.149017,490.159393 290.243774,494.428711 289.585388,499.820160 
	C288.694946,507.112213 285.576385,513.091125 280.764160,519.246704 
M714.157837,566.258728 
	C716.439941,565.834778 718.756775,564.928040 720.996704,565.089478 
	C725.385376,565.405701 727.130493,563.241882 728.305481,559.422119 
	C729.727539,554.798828 732.092590,550.595764 736.091858,547.665527 
	C735.208618,545.480896 733.398315,544.928589 731.701965,544.352661 
	C723.707092,541.638428 716.938477,544.370483 711.070007,549.608459 
	C700.407227,559.125671 694.708252,571.867188 688.934448,584.572937 
	C695.962219,576.962280 703.225281,569.786194 714.157837,566.258728 
M521.603577,407.680420 
	C529.458435,407.414185 537.405762,408.612244 546.720276,406.108063 
	C540.754761,405.010559 538.645752,400.752716 535.131409,398.527710 
	C521.350037,406.844421 506.614014,406.241364 491.820435,404.029816 
	C484.083435,402.873199 482.094666,403.105682 475.747406,409.291687 
	C490.760803,407.696411 505.636658,405.849365 521.603577,407.680420 
M421.317780,429.718262 
	C411.088928,446.762329 396.945038,460.114044 380.857483,471.649048 
	C383.170898,472.274597 384.323700,470.954742 385.698730,470.143921 
	C396.209808,463.945953 404.826965,455.101898 414.952484,448.550995 
	C424.232056,442.547363 422.859436,433.222931 426.120941,424.890869 
	C422.196167,424.518768 422.717407,427.545258 421.317780,429.718262 
M465.810730,673.790222 
	C466.501495,673.377441 467.192261,672.964661 467.883026,672.551880 
	C457.442261,675.589844 446.628754,677.593079 437.673431,684.250000 
	C447.910553,683.631165 456.737427,679.263184 465.810730,673.790222 
M301.089111,520.701477 
	C301.869171,518.412109 301.817902,516.130493 301.174866,513.792175 
	C297.275879,520.656433 293.053345,527.263672 291.620422,535.160217 
	C295.028412,536.072571 296.112335,533.994995 297.190552,532.205872 
	C299.175079,528.912781 300.139526,525.229004 301.089111,520.701477 
M723.544556,590.993103 
	C722.476562,594.054199 721.408569,597.115295 720.340576,600.176392 
	C726.064758,593.423523 731.746460,586.755005 735.021912,577.374329 
	C727.411316,579.533386 726.266357,585.428284 723.544556,590.993103 
M512.333313,517.101013 
	C512.425476,519.557007 512.748352,521.925659 514.977173,524.297180 
	C518.949402,516.585388 517.259827,509.319977 515.908630,500.825256 
	C512.856262,506.409912 512.319946,511.271332 512.333313,517.101013 
M751.119568,603.404602 
	C750.734070,604.810730 749.247253,605.948242 749.918701,608.339722 
	C755.692444,601.939270 761.092529,596.091492 763.147827,588.046448 
	C757.069702,591.339722 754.703613,597.416260 751.119568,603.404602 
M329.611267,486.334686 
	C325.655365,492.297150 321.355316,498.064392 318.117737,505.360352 
	C325.617035,502.135284 330.763916,493.479889 331.829498,483.256744 
	C331.139923,484.235596 330.576904,485.034760 329.611267,486.334686 
M269.378662,465.914215 
	C266.454315,468.626678 262.726685,470.607941 261.635071,475.069641 
	C268.311981,472.610107 272.973572,467.951538 276.626160,461.179596 
	C273.516876,462.125549 271.921387,464.103973 269.378662,465.914215 
M283.236267,504.861115 
	C279.240417,509.975830 274.662292,514.680603 271.564667,520.763428 
	C274.447754,521.283020 275.545807,519.447205 276.776337,518.016541 
	C281.955292,511.995361 283.812988,508.238007 283.236267,504.861115 
M591.283630,389.738586 
	C584.107300,390.453766 578.311890,394.248199 572.485046,397.976562 
	C579.084412,396.283661 584.991577,392.990448 591.283630,389.738586 
M734.203613,555.961792 
	C732.601196,559.129089 731.029053,562.305359 730.724243,567.103455 
	C735.038147,562.333923 736.769836,557.757935 737.376892,551.451538 
	C736.020813,553.313538 735.272583,554.340942 734.203613,555.961792 
M689.555176,562.078369 
	C687.408875,565.524414 686.830505,569.165405 688.530090,573.101868 
	C688.930969,569.578735 689.331787,566.055542 689.555176,562.078369 
z"/>
<path fill="#000000" opacity="1.000000" stroke="none" 
	d="
M632.002930,216.876160 
	C669.651001,218.047577 704.710754,208.870834 738.941650,195.482285 
	C764.363342,185.539215 789.623779,175.082016 816.433472,169.253403 
	C830.284973,166.241989 844.266541,164.190994 858.506470,164.688889 
	C860.212524,164.748535 862.759033,164.217117 862.556946,166.972565 
	C862.406494,169.023499 860.176636,168.984131 858.523621,168.934647 
	C835.594971,168.248398 813.637024,173.065765 791.968567,180.102478 
	C768.667358,187.669449 746.183716,197.393372 723.108887,205.554596 
	C692.000977,216.556992 660.046509,221.998260 627.072144,221.012283 
	C606.227539,220.388992 585.684937,217.370239 565.507019,212.016525 
	C564.933960,211.864487 564.382324,211.239029 563.600952,211.974045 
	C594.609314,225.307175 625.976074,237.318665 659.425049,242.471344 
	C689.211487,247.059814 718.788574,244.839493 748.176880,238.342010 
	C778.528137,231.631607 807.611206,221.157501 836.415283,209.745880 
	C869.699829,196.559235 901.881287,180.688095 935.751892,168.931168 
	C939.681580,167.567123 943.647339,166.297516 947.634460,165.112411 
	C949.325317,164.609818 951.130432,163.878723 952.870544,165.194916 
	C953.474060,167.638306 951.639526,167.927567 950.077209,168.425964 
	C910.158264,181.160461 872.684692,199.958893 833.811951,215.281189 
	C799.861328,228.663376 765.353943,240.253998 729.161438,246.138168 
	C691.241394,252.303146 654.273560,248.243240 617.816345,236.753891 
	C590.430603,228.123383 564.229126,216.614014 537.942078,205.239914 
	C509.212799,192.809113 480.859985,179.424362 451.164551,169.359482 
	C422.263885,159.563950 393.016022,151.315002 362.091156,151.211517 
	C357.169250,151.195038 353.030518,152.587204 348.915924,154.976990 
	C330.054352,165.931885 311.722412,177.782822 292.040741,187.343597 
	C269.203339,198.437347 245.204666,205.426407 220.183594,209.091309 
	C215.901321,209.718536 212.294388,211.665878 208.605255,213.497681 
	C191.947144,221.769119 174.706604,228.171082 156.124817,230.464020 
	C154.556320,230.657562 152.387650,231.764267 151.952942,229.394852 
	C151.442017,226.610046 154.095551,227.023895 155.755219,226.757904 
	C171.736938,224.196548 187.006073,219.460297 201.474258,211.893250 
	C191.974823,211.453888 182.601395,210.654434 173.288193,209.306061 
	C145.290817,205.252640 119.281929,196.367950 97.348427,177.724091 
	C96.021500,176.596176 93.596611,175.524994 94.749985,173.488083 
	C96.183540,170.956345 98.292984,173.111328 99.979355,173.757751 
	C124.972984,183.338318 150.669235,186.932587 177.394928,184.026184 
	C208.154282,180.681091 235.909775,169.107437 262.617645,154.342285 
	C282.293701,143.464584 301.773010,132.278702 323.499664,125.631783 
	C354.690582,116.089424 385.820679,116.598541 417.030090,125.070854 
	C422.084717,126.443016 427.093689,126.923927 432.309235,126.817009 
	C464.128815,126.164742 494.734528,133.144073 525.003662,141.987732 
	C552.826965,150.116821 579.467712,161.722855 607.174500,170.190933 
	C631.489380,177.622330 656.274170,182.177887 681.840759,181.683899 
	C716.125122,181.021484 748.666260,172.826218 780.003784,159.289734 
	C785.516113,156.908615 790.930908,154.370850 795.939453,151.007156 
	C797.352600,150.058075 799.307068,148.297745 800.702271,150.437271 
	C802.066711,152.529495 799.701355,153.631592 798.313110,154.665039 
	C779.151306,168.928986 758.092102,179.368683 735.233032,186.335983 
	C704.284424,195.768906 672.740234,198.835220 640.510803,196.497986 
	C587.721375,192.669754 537.915100,177.782669 489.714813,156.666733 
	C470.495667,148.247086 451.154999,140.142380 431.367432,133.090332 
	C422.274841,129.849854 413.571411,131.869324 404.819214,133.448761 
	C391.548889,135.843567 378.903900,140.354980 365.847198,146.289398 
	C371.143066,148.598938 376.065460,147.846466 380.692108,148.375977 
	C413.557800,152.137482 444.766296,161.878967 475.270630,174.140839 
	C492.263336,180.971405 508.866486,188.793991 525.965759,195.331116 
	C553.246399,205.760651 581.310059,213.266174 610.559326,215.885330 
	C617.548035,216.511124 624.518250,216.642258 632.002930,216.876160 
M376.941132,137.328979 
	C387.712463,132.980499 399.007477,130.488190 410.344940,127.947876 
	C386.495880,121.658737 362.547974,120.490372 338.425629,125.770454 
	C315.896271,130.701843 295.332458,140.437912 275.447937,151.783905 
	C255.755005,163.020599 235.733994,173.536789 213.946060,180.242493 
	C191.486588,187.154892 168.679810,190.816208 145.072968,188.464981 
	C133.323120,187.294708 121.903198,184.645203 109.189545,181.532761 
	C112.931549,183.970291 115.451859,185.847122 118.177750,187.351425 
	C147.032990,203.275375 178.081100,208.753098 210.704437,206.609726 
	C213.233276,206.443573 215.559036,205.670563 217.757248,204.345474 
	C231.447723,196.092743 245.208664,187.956345 258.870728,179.657104 
	C285.627991,163.402969 313.917999,151.420395 345.393921,148.119675 
	C350.146423,147.621323 355.045227,147.957855 359.409515,145.223160 
	C364.652008,141.938171 370.514282,139.928421 376.941132,137.328979 
M713.500549,187.808044 
	C729.982849,184.156509 746.058716,179.313080 761.136047,171.507263 
	C754.883972,173.693954 748.440491,175.178970 742.089783,176.988998 
	C712.424866,185.443817 682.187500,187.625549 651.654846,184.093826 
	C626.071777,181.134644 601.644958,173.260635 577.584900,164.369339 
	C543.081848,151.618851 508.515045,139.128372 471.887146,133.771484 
	C461.659454,132.275665 451.416107,130.603851 440.951233,131.753693 
	C455.836609,137.623093 470.578796,143.706039 485.092072,150.290375 
	C533.159851,172.097610 583.007568,187.444870 635.780334,192.249649 
	C661.603149,194.600739 687.264343,193.278641 713.500549,187.808044 
M297.004456,164.574036 
	C272.705170,174.741745 250.899399,189.291336 227.338318,203.734116 
	C271.673553,197.011307 307.891632,175.656509 343.504028,152.904068 
	C327.631531,154.415176 312.362335,158.117722 297.004456,164.574036 
z"/>
<path fill="#000000" opacity="1.000000" stroke="none" 
	d="
M202.085724,828.904053 
	C228.517059,822.623108 253.194748,812.562317 277.844696,802.460022 
	C299.155060,793.726379 320.861877,786.308655 343.582092,782.258423 
	C367.792847,777.942627 392.117737,777.087769 416.678986,779.204041 
	C457.680450,782.736877 495.103851,797.705444 532.465393,813.467346 
	C563.928040,826.740601 595.958069,838.580383 630.083862,843.287720 
	C641.793823,844.903015 653.552734,846.045898 665.413086,845.758728 
	C668.073486,845.694275 670.191956,844.616333 672.370728,843.348145 
	C692.375488,831.704102 711.539490,818.631531 732.441406,808.506409 
	C755.088562,797.536133 778.626160,789.638428 803.698669,786.685974 
	C806.796570,786.321228 809.316284,784.680359 811.958740,783.299438 
	C828.870300,774.461609 846.412842,767.406311 865.355042,764.269470 
	C867.394531,763.931702 869.582947,762.910217 871.571655,766.531067 
	C862.151733,769.377747 852.618347,770.460999 843.727478,773.727478 
	C834.835083,776.994385 826.077271,780.547729 816.369690,785.430908 
	C826.518066,784.874451 835.345703,784.775940 844.182434,785.633118 
	C874.384766,788.562927 901.900757,798.399353 926.067810,817.001953 
	C927.403687,818.030396 929.784851,818.982910 928.594971,821.211914 
	C927.620361,823.037659 925.747559,822.150574 924.150513,821.512573 
	C902.305603,812.786133 879.655090,809.605286 856.185303,811.005676 
	C830.513733,812.537354 806.575256,820.119751 783.332520,830.545166 
	C765.196106,838.680176 748.539124,849.524170 731.089050,858.916138 
	C705.759094,872.549316 678.742737,879.329590 650.071411,879.022095 
	C634.892151,878.859436 619.978699,875.964478 605.229309,872.394104 
	C603.299133,871.926819 601.304626,871.279053 599.366089,871.358032 
	C554.622681,873.181824 512.281006,861.980774 470.451599,847.835327 
	C448.068573,840.266052 425.932312,831.958801 402.965485,826.148926 
	C374.199280,818.872009 345.194458,817.537781 315.790771,820.972900 
	C287.900208,824.231140 261.365173,831.905457 236.157959,844.185852 
	C231.682571,846.366150 227.504440,849.156433 223.187546,851.662415 
	C222.179291,852.247681 221.178757,852.920593 219.627731,851.908752 
	C218.972015,848.959595 221.572739,847.811340 223.369370,846.417908 
	C247.602219,827.622559 274.932129,815.436829 304.753571,808.745483 
	C329.440125,803.206360 354.501770,801.417908 379.703308,802.882996 
	C423.380188,805.422058 465.718170,814.485229 506.425110,830.647034 
	C530.720215,840.292847 554.770203,850.561035 579.129272,860.038208 
	C587.699402,863.372437 596.254517,867.845581 605.984131,866.710999 
	C624.641785,864.535156 642.182373,858.755371 658.843689,849.967468 
	C642.789795,849.491638 627.037598,847.252747 611.473389,843.881958 
	C577.124268,836.442932 544.711487,823.322266 512.588196,809.468018 
	C483.393311,796.876770 453.359619,787.123718 421.672180,783.639221 
	C398.954498,781.141113 376.186829,781.609558 353.433380,784.717529 
	C320.021057,789.281494 289.346283,802.258240 258.416260,814.538818 
	C233.303894,824.509583 207.877731,833.346313 180.916260,836.862732 
	C173.948074,837.771484 166.940231,837.308533 159.947540,837.251892 
	C158.790863,837.242493 157.566299,837.125916 156.844940,834.215820 
	C172.029266,833.411926 187.109329,832.905029 202.085724,828.904053 
M684.313660,848.195312 
	C675.485901,848.764648 666.880005,849.903503 659.047913,854.687195 
	C655.248474,857.007812 650.897888,858.449890 646.743896,860.161194 
	C636.062073,864.561584 624.951416,867.585266 612.524109,870.029846 
	C635.519775,875.292358 657.418701,876.354431 679.558350,872.801514 
	C700.280640,869.476074 719.151550,861.331543 737.128113,850.980896 
	C758.498108,838.676392 779.769653,826.235291 803.188293,818.074646 
	C832.399353,807.895691 862.246277,803.623901 893.026245,808.768127 
	C899.592102,809.865540 906.057739,811.562805 912.967041,813.070496 
	C912.413940,812.466736 912.230957,812.184631 911.975708,812.005432 
	C911.432800,811.624329 910.859253,811.284912 910.286316,810.948792 
	C883.924622,795.484009 855.544556,788.256775 824.915588,788.980530 
	C813.925842,789.240173 803.815918,790.756226 794.873352,797.556274 
	C792.106934,799.659912 788.878296,801.146912 785.914185,803.000793 
	C769.114380,813.508484 752.492188,824.332886 734.717041,833.164429 
	C719.077393,840.934875 702.318359,845.158264 684.313660,848.195312 
M484.505554,827.112732 
	C452.725525,816.077881 419.976898,809.883789 386.475159,807.362061 
	C359.747650,805.350098 333.275574,807.120667 307.013733,812.362671 
	C289.680939,815.822449 273.346344,822.034912 257.702515,830.174927 
	C270.090881,825.840027 282.769318,822.667480 295.614807,820.074768 
	C328.815369,813.373718 361.889832,812.860229 395.142670,820.337097 
	C422.857086,826.568604 449.318604,836.568970 476.129883,845.546021 
	C509.368408,856.674988 543.095825,865.427673 578.260071,867.549561 
	C580.885864,867.708008 583.529602,867.570312 587.539551,867.570312 
	C578.156677,863.970825 570.168457,861.103760 562.334045,857.864685 
	C536.794250,847.305725 511.566742,835.965820 484.505554,827.112732 
M755.297974,802.905823 
	C728.121826,813.116943 704.068726,829.017639 678.465637,844.524841 
	C724.685791,841.049622 759.051392,814.344910 795.422241,792.005066 
	C789.019165,793.141907 782.645142,794.302246 776.429565,796.032043 
	C769.545532,797.947876 762.806396,800.384399 755.297974,802.905823 
z"/>
<path fill="#000000" opacity="1.000000" stroke="none" 
	d="
M602.938843,655.083191 
	C593.046997,659.854065 582.799377,658.791260 572.546814,657.331421 
	C569.071167,656.836609 566.449585,654.835083 564.397278,652.026550 
	C559.975830,645.976013 559.420227,632.616211 563.315369,626.219543 
	C564.670959,623.993408 566.524841,622.284119 568.964661,621.524475 
	C575.843872,619.382874 582.893921,618.086731 590.110901,619.036011 
	C595.323120,619.721497 599.632263,622.359680 602.247803,626.965515 
	C607.261475,635.794128 609.403931,644.878418 603.251953,654.543945 
	C603.159424,654.869690 603.010132,655.009766 602.938843,655.083191 
M601.850098,649.221497 
	C606.847046,633.582153 598.240417,622.264221 582.018860,623.143005 
	C581.022644,623.197021 580.025208,623.235046 579.030701,623.311829 
	C568.402832,624.131958 565.261841,626.723877 564.775940,637.187317 
	C564.374939,645.821350 566.059143,653.277954 577.557678,654.299500 
	C582.380005,654.727844 587.203308,654.997070 591.975891,654.321777 
	C595.504272,653.822571 599.436890,653.734375 601.850098,649.221497 
z"/>
<path fill="#000000" opacity="1.000000" stroke="none" 
	d="
M434.991821,423.021057 
	C440.738525,420.187073 446.866302,419.213470 453.261597,418.797455 
	C466.769348,417.918762 472.518158,424.102753 474.178284,438.510254 
	C475.477905,449.789124 471.540436,454.402802 460.300568,456.233978 
	C457.193085,456.740265 454.042969,457.012054 450.903351,457.288483 
	C442.505371,458.027954 436.079651,454.855286 432.854736,446.952545 
	C429.612518,439.007416 428.147705,430.891968 434.855347,423.264832 
	C435.049591,422.973755 435.009674,423.003632 434.991821,423.021057 
M441.873352,424.134430 
	C435.032318,427.106018 433.519501,429.915131 434.195312,438.391510 
	C434.758820,445.458893 439.016357,451.447662 444.698578,452.651520 
	C452.087311,454.216827 459.225616,452.692200 466.167358,450.183472 
	C469.416901,449.009125 470.522522,446.062531 470.556793,442.973755 
	C470.612396,437.959991 469.770355,433.030396 467.351166,428.541107 
	C465.483429,425.075195 462.589569,423.028168 458.531403,423.000122 
	C453.222168,422.963409 447.901306,422.789215 441.873352,424.134430 
z"/>
<path fill="#000000" opacity="1.000000" stroke="none" 
	d="
M644.777527,291.923889 
	C648.741638,288.596313 650.732849,289.111603 651.864563,293.548889 
	C653.008301,298.033264 653.895691,302.583008 655.168762,308.340424 
	C657.911011,303.122772 660.086609,298.964966 662.280579,294.816803 
	C663.285156,292.917328 664.119263,290.535248 666.892029,291.111359 
	C670.211243,291.801056 669.315613,294.699219 669.249756,296.848694 
	C669.066528,302.825714 668.663269,308.796570 668.305115,314.767334 
	C668.219299,316.198212 668.454407,318.143066 666.196716,317.927216 
	C664.004211,317.717590 663.767456,315.838684 664.002991,314.131989 
	C664.571411,310.013611 664.849609,305.905243 664.318481,300.790100 
	C661.783142,305.712463 659.627502,309.876160 657.494141,314.051239 
	C656.727844,315.550964 656.053589,317.278259 653.915405,316.784180 
	C652.163757,316.379456 651.993042,314.764404 651.670227,313.263550 
	C650.798096,309.209564 649.819580,305.178436 648.075439,301.051636 
	C647.368469,304.947876 646.712097,308.854340 645.929565,312.735352 
	C645.616150,314.289917 645.561951,316.481781 643.238525,316.225433 
	C640.575073,315.931549 641.104736,313.876740 641.429688,311.990936 
	C642.557007,305.449066 643.606201,298.893677 644.777527,291.923889 
z"/>
<path fill="#000000" opacity="1.000000" stroke="none" 
	d="
M426.329529,321.855225 
	C423.359436,316.937531 420.723999,312.202209 417.507263,306.422455 
	C418.124664,312.454773 418.625336,317.312195 419.117188,322.170471 
	C419.287323,323.850891 419.488190,325.615295 417.735870,326.628967 
	C415.785339,327.757263 414.712219,326.181122 413.521454,325.048676 
	C410.441742,322.119812 407.348938,319.204742 403.879028,315.922455 
	C405.576355,320.004120 407.056458,323.673035 408.631744,327.300598 
	C409.312073,328.867249 410.324829,330.526245 408.297180,331.645264 
	C406.115631,332.849274 405.275879,330.878967 404.668457,329.420563 
	C402.110962,323.280273 399.691345,317.082397 397.232117,310.901337 
	C396.650726,309.440094 396.274048,307.880463 397.906921,306.906708 
	C399.541534,305.931946 401.133240,306.449646 402.460815,307.710754 
	C405.933929,311.009918 409.387787,314.329346 413.552917,318.313721 
	C413.552917,312.464874 413.643494,307.568237 413.509277,302.677765 
	C413.453949,300.662018 413.579498,298.969025 415.812347,298.322540 
	C417.947845,297.704224 418.808289,299.281555 419.611450,300.752411 
	C422.800812,306.593384 425.998932,312.430725 429.087463,318.325104 
	C430.370544,320.773865 429.570557,322.169434 426.329529,321.855225 
z"/>
<path fill="#000000" opacity="1.000000" stroke="none" 
	d="
M580.259155,790.066101 
	C580.359131,796.005554 580.206543,801.482727 582.987427,806.540222 
	C583.566467,807.593201 583.355164,809.155212 583.285706,810.470886 
	C583.204712,812.005554 583.932617,814.264099 581.568665,814.507935 
	C579.410522,814.730408 579.669312,812.634338 579.546387,811.219482 
	C579.415588,809.714600 579.000427,808.552979 577.220642,808.668945 
	C572.937683,808.947876 568.657898,809.275574 564.797180,809.553345 
	C562.867188,811.447998 564.809570,815.795654 561.347473,815.139099 
	C558.216125,814.545166 559.945984,810.926086 559.748169,808.664612 
	C559.408386,804.780518 563.547241,802.671753 563.852234,798.765076 
	C564.148987,794.962463 565.023682,791.166443 564.571228,787.354431 
	C564.086060,783.266846 565.973206,781.904602 569.675781,782.051331 
	C570.505737,782.084229 571.339600,782.025269 572.171509,782.000427 
	C579.788635,781.773132 579.792847,781.776611 580.259155,790.066101 
M574.568237,804.679749 
	C574.970276,804.402344 575.722961,804.124207 575.722473,803.847595 
	C575.712769,798.710205 575.700745,793.569519 575.489075,788.437744 
	C575.406738,786.441223 573.712158,786.347168 572.127258,786.375244 
	C570.374878,786.406250 569.334106,787.130005 569.148132,788.990540 
	C568.639282,794.080505 568.072449,799.164734 567.518494,804.345154 
	C569.524231,805.475403 571.703735,804.749756 574.568237,804.679749 
z"/>
<path fill="#000000" opacity="1.000000" stroke="none" 
	d="
M614.290833,792.501587 
	C613.641846,789.322083 613.116699,786.549011 612.582397,783.777710 
	C612.191345,781.749207 610.585632,779.319031 613.110779,777.908569 
	C616.801025,775.847412 620.862671,774.729187 625.032898,776.656067 
	C627.726929,777.900757 629.238342,780.271057 628.610535,783.131653 
	C628.010254,785.866638 628.516541,787.576904 630.499695,789.645081 
	C633.877625,793.167969 632.792419,798.682556 628.627380,801.241455 
	C626.629883,802.468628 624.350525,802.949280 622.063171,803.476379 
	C618.290894,804.345520 616.363953,802.970581 615.767212,799.242188 
	C615.426392,797.113220 614.870056,795.018738 614.290833,792.501587 
M619.466553,794.306274 
	C620.233032,796.133606 619.871704,798.958801 623.092590,798.668091 
	C625.401672,798.459717 627.270569,797.463074 627.639221,794.920349 
	C627.991638,792.489075 626.459290,791.164978 624.382385,790.667114 
	C621.964661,790.087463 619.633118,790.157898 619.466553,794.306274 
M620.424011,780.177856 
	C617.746216,780.141296 617.050842,781.665955 617.328308,784.031921 
	C617.535461,785.797668 618.426514,786.746033 620.242188,786.608643 
	C622.227417,786.458313 623.771729,785.510193 624.262024,783.536987 
	C624.880676,781.047180 623.164856,780.423401 620.424011,780.177856 
z"/>
<path fill="#000000" opacity="1.000000" stroke="none" 
	d="
M748.882874,294.104858 
	C750.842896,288.263794 757.012146,284.808014 762.736328,285.744965 
	C764.851196,286.091125 765.479858,287.438904 765.788391,289.125183 
	C766.954041,295.495636 768.093506,301.871704 769.140320,308.262451 
	C769.401733,309.858582 769.741760,311.899750 767.427979,312.285919 
	C765.087952,312.676483 764.897034,310.712341 764.585022,309.043976 
	C764.463379,308.393738 764.303223,307.727539 764.021545,307.134766 
	C763.261414,305.535461 764.669556,302.500854 761.529175,302.521118 
	C758.548279,302.540314 758.115051,305.270294 757.511597,307.502655 
	C757.035828,309.262390 756.762939,311.076111 756.368896,312.858978 
	C756.037720,314.356781 755.138428,315.305878 753.546570,314.981110 
	C751.876526,314.640381 751.800964,313.199097 751.806396,311.822693 
	C751.807678,311.491455 751.800903,311.139313 751.903992,310.832458 
	C753.489685,306.113220 754.227844,301.602905 749.791626,297.775085 
	C749.072388,297.154480 749.146179,295.614868 748.882874,294.104858 
M761.669495,292.894226 
	C761.156311,289.501770 758.904358,290.156982 756.787842,290.915314 
	C754.592102,291.701965 753.738342,293.389679 754.280212,295.683716 
	C754.740356,297.631989 756.046631,298.290833 757.989746,298.178741 
	C760.925232,298.009338 762.235352,296.624207 761.669495,292.894226 
z"/>
<path fill="#000000" opacity="1.000000" stroke="none" 
	d="
M585.694580,789.051453 
	C587.877808,782.987427 591.606018,779.563477 597.991333,779.642273 
	C603.662964,779.712219 606.677612,783.091248 608.538757,787.929993 
	C610.778442,793.753052 610.761658,799.315796 606.164490,804.105042 
	C602.848328,807.559570 597.578186,808.445129 593.328430,806.465393 
	C588.050964,804.006775 584.678467,798.337158 585.007751,792.353638 
	C585.061584,791.374634 585.403564,790.411499 585.694580,789.051453 
M594.054321,784.604126 
	C589.625549,788.334595 588.525452,795.153076 591.609863,799.754883 
	C594.851318,804.591003 601.189148,804.573853 603.887634,799.721802 
	C605.723267,796.421143 605.109741,789.228882 602.584167,786.470520 
	C600.472595,784.164368 598.057068,782.420044 594.054321,784.604126 
z"/>
<path fill="#000000" opacity="1.000000" stroke="none" 
	d="
M432.503052,291.310669 
	C437.692230,288.692230 442.564178,288.496277 446.781219,292.200104 
	C451.494904,296.340149 453.384094,301.822693 451.885040,307.964264 
	C450.725433,312.715088 447.246002,315.508942 442.454407,316.515961 
	C437.230408,317.613861 432.289062,314.900696 429.509399,309.491943 
	C425.849457,302.370361 426.687286,296.758575 432.503052,291.310669 
M444.796448,296.792511 
	C441.689697,293.402924 438.270264,292.146973 434.360596,295.473358 
	C431.401276,297.991180 431.197754,304.183167 433.979156,308.423462 
	C436.205536,311.817535 439.151093,313.657318 443.295380,311.704651 
	C447.152130,309.887451 448.354645,306.235718 446.811096,301.016846 
	C446.439026,299.758850 445.784698,298.584320 444.796448,296.792511 
z"/>
<path fill="#000000" opacity="1.000000" stroke="none" 
	d="
M492.168182,287.435242 
	C489.193390,284.176697 485.595703,281.496002 487.318665,276.539642 
	C488.998901,271.706085 493.346802,270.701050 497.653656,269.847321 
	C500.028778,269.376495 501.806854,269.946564 502.511169,272.748779 
	C504.132477,279.199585 505.949921,285.601746 507.739685,292.009125 
	C508.187408,293.611938 508.330627,295.134674 506.456635,295.713104 
	C504.456543,296.330475 504.039368,294.629730 503.404572,293.249451 
	C502.447754,291.168976 502.509155,288.678711 500.854126,286.785553 
	C495.956085,287.253540 496.174042,291.301788 495.432251,294.528107 
	C494.959656,296.583344 495.325287,299.690308 492.325500,299.139221 
	C489.372772,298.596741 490.848541,295.599640 491.018372,293.643311 
	C491.189758,291.669373 491.793335,289.732941 492.168182,287.435242 
M491.684418,278.671997 
	C492.124481,282.874420 495.115173,283.555328 498.140564,282.396545 
	C501.235443,281.211121 499.491760,278.378540 498.732330,276.415741 
	C497.548370,273.355804 494.850555,274.003204 491.684418,278.671997 
z"/>
<path fill="#000000" opacity="1.000000" stroke="none" 
	d="
M476.480865,297.524719 
	C476.885925,298.848450 477.194794,299.797699 477.461273,300.758667 
	C477.881653,302.274719 477.453400,303.456085 475.865692,303.869781 
	C474.181702,304.308533 473.428925,303.132202 472.981598,301.796875 
	C472.095459,299.151703 471.841736,296.267120 469.989166,293.866852 
	C466.781128,294.344116 464.007812,295.842987 461.040741,297.086395 
	C460.350128,300.066956 462.036133,302.589111 462.548157,305.300140 
	C462.838257,306.835876 463.433655,308.389618 461.381165,308.980835 
	C459.787964,309.439758 458.888794,308.343536 458.425385,306.972839 
	C456.238953,300.505890 454.045197,294.040619 451.965790,287.539001 
	C451.576752,286.322662 451.362610,284.705688 453.003174,284.107361 
	C454.853363,283.432526 455.692505,284.877960 456.414032,286.234863 
	C457.414276,288.116058 457.242340,290.526093 459.024811,292.113281 
	C460.928986,292.351227 462.556122,291.332275 464.319519,290.985321 
	C468.233276,290.215271 469.296173,288.164978 467.528748,284.593872 
	C467.235962,284.002319 467.010254,283.348328 466.906006,282.698730 
	C466.680023,281.290009 465.862885,279.521545 468.011810,278.967834 
	C469.962433,278.465179 470.630951,280.149078 471.115265,281.534821 
	C472.927429,286.720032 474.625061,291.945251 476.480865,297.524719 
z"/>
<path fill="#000000" opacity="1.000000" stroke="none" 
	d="
M678.330200,306.216217 
	C678.294067,309.682770 678.312744,312.680298 678.210754,315.673706 
	C678.158020,317.219391 677.824890,318.895264 675.817993,318.793030 
	C674.162659,318.708710 673.766724,317.203583 673.819214,315.829468 
	C674.092407,308.681793 674.431641,301.536499 674.779785,294.391937 
	C674.856140,292.825409 675.790527,292.003998 677.338257,291.876373 
	C677.835144,291.835358 678.334229,291.819214 678.832458,291.796112 
	C694.447388,291.071960 694.466675,291.072449 694.159912,306.580292 
	C694.090942,310.069489 693.907837,313.560760 693.629333,317.039246 
	C693.523315,318.363068 693.033813,319.887939 691.329712,319.782776 
	C689.360107,319.661255 689.168091,318.045288 689.214111,316.455353 
	C689.362915,311.303497 689.466797,306.149597 689.690491,301.000916 
	C689.816162,298.110107 689.271729,296.079529 685.695679,296.271484 
	C682.638855,296.435547 679.017212,295.326538 678.772583,300.281586 
	C678.682495,302.105621 678.484070,303.924347 678.330200,306.216217 
z"/>
<path fill="#000000" opacity="1.000000" stroke="none" 
	d="
M365.461700,352.308411 
	C363.907990,345.297150 362.533600,338.655823 361.109009,332.025299 
	C360.706177,330.150543 360.496552,328.330963 362.318359,327.098969 
	C364.375885,325.707520 366.105255,326.770477 367.697235,328.106781 
	C372.646210,332.260895 377.604523,336.404663 382.499573,340.621674 
	C383.639465,341.603729 385.973663,342.529938 384.454956,344.445282 
	C382.893433,346.414673 380.642120,345.545227 379.281647,343.944122 
	C376.757355,340.973236 374.301697,341.620758 371.413483,343.259644 
	C368.267639,345.044739 369.405457,347.781342 369.444153,350.319305 
	C369.463989,351.620514 369.848602,353.090576 368.375092,353.861847 
	C367.095673,354.531555 366.166962,353.949646 365.461700,352.308411 
M366.140411,335.206726 
	C366.387360,336.811462 366.472992,338.475159 367.824921,339.744171 
	C369.381195,339.843079 370.610413,339.347504 371.255249,337.748566 
	C370.359863,335.620819 368.458008,334.458374 366.739594,333.380890 
	C365.351074,332.510254 365.938324,334.001312 366.140411,335.206726 
z"/>
<path fill="#000000" opacity="1.000000" stroke="none" 
	d="
M716.421509,306.717773 
	C717.456421,309.405334 718.410828,311.711609 719.251587,314.058594 
	C719.728516,315.390137 720.809448,317.012512 718.820496,317.945679 
	C716.830688,318.879272 715.734131,317.484497 714.947266,315.886963 
	C713.887024,313.734406 713.572266,311.140717 710.046326,311.229309 
	C706.580811,311.316345 703.789062,311.551849 703.126831,315.795959 
	C702.848755,317.577820 701.936218,319.694977 699.529785,318.868683 
	C697.237793,318.081696 698.392944,316.018738 698.826660,314.564728 
	C700.727051,308.193939 702.738220,301.855530 704.775208,295.526581 
	C705.330566,293.801361 705.883118,291.945099 708.238953,291.821625 
	C710.977539,291.678009 711.329590,293.904266 712.061646,295.694336 
	C713.508667,299.232483 714.886780,302.798828 716.421509,306.717773 
M707.630432,301.173096 
	C707.308472,303.006958 705.709229,304.662598 706.793640,306.730499 
	C708.305908,307.179382 709.683105,307.252380 711.044556,305.874542 
	C710.331482,303.999878 710.681458,301.513428 707.630432,301.173096 
z"/>
<path fill="#000000" opacity="1.000000" stroke="none" 
	d="
M671.466797,762.511963 
	C676.108154,767.505981 680.510071,772.236511 684.886597,776.990295 
	C685.864685,778.052673 687.407349,779.207275 685.806824,780.725342 
	C684.282288,782.171143 682.588501,781.464478 681.492859,780.030396 
	C679.416809,777.312927 677.225769,776.521851 673.806213,777.854614 
	C670.099121,779.299438 670.023376,781.913086 670.209961,785.034424 
	C670.309387,786.697632 670.272095,788.708374 668.024841,788.803650 
	C665.644958,788.904541 665.798462,786.803162 665.714294,785.185669 
	C665.370056,778.574280 665.053711,771.961243 664.769958,765.346985 
	C664.699402,763.700500 664.541504,761.906555 666.350952,760.968018 
	C668.305115,759.954285 669.851135,760.857178 671.466797,762.511963 
M670.390320,775.073364 
	C671.998962,774.831543 673.649719,774.659668 674.360779,772.614563 
	C673.124207,770.874817 671.951172,769.054443 669.526978,768.140442 
	C669.259888,770.666443 668.916199,772.749329 670.390320,775.073364 
z"/>
<path fill="#000000" opacity="1.000000" stroke="none" 
	d="
M634.436646,314.239624 
	C621.198303,313.398224 620.847595,312.943420 623.221313,300.418976 
	C623.931396,296.672394 624.605164,292.918915 625.307922,289.170898 
	C625.787781,286.611359 627.005188,285.457458 629.851257,286.211517 
	C632.727783,286.973572 635.729980,287.252838 638.665833,287.803497 
	C639.869080,288.029144 641.017944,288.542267 640.667236,290.073486 
	C640.375977,291.344971 639.364441,292.022736 638.071960,291.947357 
	C636.920654,291.880219 635.778992,291.600555 634.640137,291.378235 
	C630.159851,290.503723 628.515381,292.463196 629.105774,296.687256 
	C630.388000,298.034882 632.017700,297.523285 633.427490,297.871490 
	C635.110657,298.287170 637.694580,298.122681 637.263794,300.689056 
	C636.831055,303.267395 634.340759,302.014343 632.669800,302.150818 
	C632.347717,302.177155 632.000305,302.101471 631.687500,302.001251 
	C628.744629,301.058075 627.543213,302.038727 627.154907,305.199371 
	C626.768250,308.346191 627.889160,309.490082 630.775879,309.658295 
	C632.095093,309.735168 633.550232,309.695221 634.685181,310.243439 
	C636.852844,311.290527 637.180908,312.773560 634.436646,314.239624 
z"/>
<path fill="#000000" opacity="1.000000" stroke="none" 
	d="
M382.829773,332.089172 
	C381.014069,328.686188 379.458832,325.560394 377.692657,322.558716 
	C375.934631,319.570801 376.537445,317.572357 379.771545,316.327087 
	C380.543701,316.029785 381.258911,315.587860 382.013306,315.240692 
	C388.068024,312.454529 391.680634,312.994629 394.352600,317.076324 
	C397.196960,321.421326 396.329437,325.454803 391.013153,329.397217 
	C388.511505,331.252411 388.428101,332.841400 389.775940,335.198608 
	C390.345978,336.195557 390.791077,337.312225 391.041534,338.430786 
	C391.319824,339.673584 390.750336,340.767487 389.602295,341.329620 
	C388.202576,342.015015 387.421204,341.036530 386.855072,339.964966 
	C385.535797,337.467896 384.279541,334.937592 382.829773,332.089172 
M389.571594,324.879486 
	C391.232788,322.575195 391.495667,320.266296 389.004852,318.467529 
	C387.156982,317.133148 385.100250,317.948914 383.528809,319.121399 
	C381.137054,320.905975 383.288910,322.602936 384.054016,324.218140 
	C385.195282,326.627411 386.860077,327.316437 389.571594,324.879486 
z"/>
<path fill="#000000" opacity="1.000000" stroke="none" 
	d="
M660.247437,774.206177 
	C660.407166,778.692932 658.625061,781.780884 654.992432,783.426575 
	C651.530334,784.994934 650.687195,787.023315 652.315002,790.476013 
	C653.090210,792.120239 654.320923,794.528748 651.228455,795.318726 
	C648.540588,796.005371 648.448303,793.463135 647.953552,791.884399 
	C646.070190,785.874939 644.435364,779.786987 642.513672,773.790588 
	C641.737000,771.366882 642.458862,770.149353 644.647461,769.126099 
	C651.846375,765.760193 657.790833,767.485535 660.247437,774.206177 
M654.734070,772.799988 
	C654.034729,772.394226 653.377991,771.770264 652.627991,771.623901 
	C650.444397,771.197754 647.809021,771.130371 647.586548,773.883606 
	C647.394775,776.255920 647.355530,779.710388 650.507019,780.380737 
	C653.113892,780.935242 655.156433,779.061096 655.615173,776.229614 
	C655.761719,775.325195 655.350769,774.330505 654.734070,772.799988 
z"/>
<path fill="#000000" opacity="1.000000" stroke="none" 
	d="
M536.062927,632.381042 
	C538.161377,640.447083 538.215271,648.215942 537.287598,656.034729 
	C537.079346,657.789917 536.534607,659.413330 534.688660,659.907349 
	C532.557983,660.477722 531.788879,658.696960 531.043457,657.239197 
	C526.680237,648.707092 526.608826,639.654358 527.987671,630.468933 
	C528.255005,628.688110 529.421692,627.295227 531.348328,627.349670 
	C534.213745,627.430481 534.970642,629.885681 536.062927,632.381042 
M532.664001,651.859863 
	C532.826111,652.148254 532.963684,652.455444 533.162781,652.715454 
	C533.240356,652.816711 533.456665,652.811829 533.609741,652.855286 
	C534.075623,646.266113 534.478027,639.683167 532.112305,631.948120 
	C529.099121,639.489990 530.667297,645.393494 532.664001,651.859863 
z"/>
<path fill="#000000" opacity="1.000000" stroke="none" 
	d="
M506.177917,443.632019 
	C503.748535,447.996887 501.129425,447.250183 499.427826,443.821411 
	C495.734039,436.378052 494.954773,428.250977 495.059357,420.056366 
	C495.079865,418.448730 495.593353,416.514435 497.515839,416.086212 
	C499.535736,415.636292 500.506622,417.329895 501.174927,418.840851 
	C504.609100,426.605194 508.113281,434.376556 506.177917,443.632019 
M502.125427,440.840576 
	C504.470337,434.178711 501.068390,428.659943 498.835114,422.907532 
	C499.076324,428.888641 499.419678,434.846039 502.125427,440.840576 
z"/>
<path fill="#000000" opacity="1.000000" stroke="none" 
	d="
M722.696472,291.410187 
	C726.902405,290.869965 730.677673,290.385376 734.462463,289.993866 
	C735.980774,289.836823 737.722839,289.870117 737.918335,291.857849 
	C738.121033,293.918610 736.331421,294.267487 734.851562,294.220947 
	C729.996155,294.068237 730.072449,297.114319 730.512573,300.533295 
	C731.082703,304.962341 731.659546,309.391998 732.117126,313.833374 
	C732.286438,315.476227 732.342163,317.501526 730.143616,317.768219 
	C727.729248,318.061066 727.839966,315.962280 727.648132,314.338196 
	C727.046753,309.246887 726.342712,304.164551 725.892090,299.059906 
	C725.659241,296.422577 724.724121,295.139282 721.890625,295.335419 
	C720.458313,295.434601 718.035278,296.327728 718.027588,293.728973 
	C718.019531,291.011597 720.708374,292.022156 722.696472,291.410187 
z"/>
<path fill="#000000" opacity="1.000000" stroke="none" 
	d="
M351.622223,356.302795 
	C348.648132,351.684265 345.951538,347.311615 343.069794,343.064575 
	C341.535553,340.803497 341.665833,339.166718 344.085571,337.756958 
	C346.518036,336.339813 348.880890,334.803223 351.312805,333.385162 
	C352.366150,332.770935 353.560883,332.502960 354.435028,333.670319 
	C355.327667,334.862366 354.615143,335.760132 353.747192,336.675232 
	C351.860413,338.664520 347.418457,338.914124 348.347198,342.676819 
	C348.980438,345.242249 351.327087,347.379028 352.882629,349.724030 
	C354.530334,352.207916 356.168182,354.698883 357.770813,357.211914 
	C358.535980,358.411713 359.966003,359.728027 358.279114,361.080688 
	C356.524536,362.487610 355.200317,361.197235 354.118683,359.843811 
	C353.293213,358.810974 352.583801,357.685303 351.622223,356.302795 
z"/>
<path fill="#000000" opacity="1.000000" stroke="none" 
	d="
M641.686584,792.289307 
	C642.022400,793.622864 642.264404,794.585144 642.418030,795.561401 
	C642.605530,796.752808 642.659973,797.972412 641.122742,798.325195 
	C639.790344,798.631042 638.712952,797.985962 638.373230,796.775146 
	C636.365723,789.621765 634.442688,782.444458 632.541992,775.261719 
	C632.205872,773.991394 632.631104,772.941589 634.072571,772.630005 
	C636.137146,772.183777 636.666626,773.736450 637.062622,775.163635 
	C638.608948,780.736816 640.064331,786.335266 641.686584,792.289307 
z"/>
<path fill="#000000" opacity="1.000000" stroke="none" 
	d="
M742.561768,311.181885 
	C741.596313,305.205505 740.607666,299.663239 739.816833,294.092896 
	C739.575256,292.391663 739.089661,290.081146 741.621826,289.611633 
	C744.356934,289.104462 744.293457,291.506256 744.559448,293.222412 
	C745.496765,299.270508 746.418701,305.323212 747.175964,311.395447 
	C747.385071,313.072357 747.866333,315.526093 745.166199,315.638855 
	C742.586487,315.746582 742.833557,313.370911 742.561768,311.181885 
z"/>
<path fill="#000000" opacity="1.000000" stroke="none" 
	d="
M482.200775,282.936523 
	C483.680969,287.928314 485.086243,292.527039 486.449615,297.138123 
	C486.866394,298.547821 487.584930,300.216949 485.521179,300.898682 
	C483.227356,301.656433 482.720245,299.818390 482.217041,298.207031 
	C480.338409,292.191376 478.465973,286.173676 476.627472,280.145660 
	C476.100861,278.419098 475.199066,276.395935 477.925323,275.726440 
	C480.260284,275.153076 480.575470,277.170380 481.088287,278.704163 
	C481.507874,279.959076 481.774994,281.264923 482.200775,282.936523 
z"/>
<path fill="#000000" opacity="1.000000" stroke="none" 
	d="
M518.795654,654.036865 
	C515.724548,647.146851 514.205444,640.553650 518.153381,633.565796 
	C518.843628,642.326355 519.817627,650.926331 525.858154,658.209290 
	C520.719055,660.093567 520.448975,656.367798 518.795654,654.036865 
z"/>
<path fill="#000000" opacity="1.000000" stroke="none" 
	d="
M508.884064,415.687927 
	C516.382629,421.208527 519.792542,434.906525 515.470764,440.832367 
	C513.381409,440.362793 513.755127,438.602478 513.766235,437.231323 
	C513.817749,430.907532 512.439880,425.025055 508.867371,419.718445 
	C508.052582,418.508118 507.032135,417.186798 508.884064,415.687927 
z"/>
</svg>