<svg xmlns="http://www.w3.org/2000/svg" viewBox="0 0 500 471" width="500" height="471">
  <title>Two Faces Heart Logo</title>
  <desc>Psychologist logo - two faces forming a heart, line art</desc>
  <path d="M 250.000,443.797 C248.396,442.834 245.187,442.193 243.583,439.947 C241.979,437.701 242.620,437.059 243.583,434.813 C244.545,432.567 239.412,435.775 247.433,430.963 C255.455,426.150 261.872,424.866 275.668,415.561 C289.465,406.257 297.487,400.802 302.620,393.743 C307.754,386.684 306.150,388.930 296.203,387.326 C286.257,385.722 271.818,387.968 262.834,387.326 C253.850,386.684 262.834,385.401 260.267,384.759 C257.701,384.118 261.551,387.968 252.567,384.759 C243.583,381.551 232.674,376.417 224.332,371.925 C215.989,367.433 224.973,368.075 219.198,366.791 C213.422,365.508 208.930,368.075 201.230,366.791 C193.529,365.508 194.171,362.941 188.396,361.658 C182.620,360.374 189.679,364.866 178.128,361.658 C166.578,358.449 158.877,356.524 142.193,348.824 C125.508,341.123 124.225,339.198 111.390,330.856 C98.556,322.513 105.294,329.251 90.856,315.455 C76.417,301.658 66.150,290.749 53.636,275.668 C41.123,260.588 48.503,269.893 40.802,255.134 C33.102,240.374 28.610,230.107 22.834,216.631 C17.059,203.155 18.984,207.647 17.701,201.230 C16.417,194.813 18.984,196.096 17.701,190.963 C16.417,185.829 13.850,186.471 12.567,180.695 C11.283,174.920 13.209,171.711 12.567,167.861 C11.925,164.011 10.642,180.695 10.000,165.294 C9.358,149.893 9.358,121.658 10.000,106.257 C10.642,90.856 11.925,106.257 12.567,103.690 C13.209,101.123 11.283,101.765 12.567,95.989 C13.850,90.214 11.283,92.139 17.701,80.588 C24.118,69.037 28.289,61.658 38.235,49.786 C48.182,37.914 45.615,41.123 57.487,33.102 C69.358,25.080 74.813,22.834 85.722,17.701 C96.631,12.567 94.064,13.850 101.123,12.567 C108.182,11.283 110.107,13.209 113.957,12.567 C117.807,11.925 105.615,10.000 116.524,10.000 C127.433,10.000 140.267,8.717 157.594,12.567 C174.920,16.417 177.487,22.193 185.829,25.401 C194.171,28.610 183.583,19.947 190.963,25.401 C198.342,30.856 206.684,37.914 215.348,47.219 C224.011,56.524 221.123,54.920 225.615,62.620 C230.107,70.321 230.107,69.679 233.316,78.021 C236.524,86.364 237.166,88.930 238.449,95.989 C239.733,103.048 237.807,103.048 238.449,106.257 C239.091,109.465 240.374,95.348 241.016,108.824 C241.658,122.299 240.374,146.684 241.016,160.160 C241.658,173.636 242.941,150.535 243.583,162.727 C244.225,174.920 242.941,196.738 243.583,208.930 C244.225,221.123 245.508,207.005 246.150,211.497 C246.791,215.989 245.508,222.406 246.150,226.898 C246.791,231.390 248.075,222.406 248.717,229.465 C249.358,236.524 250.321,247.112 248.717,255.134 C247.112,263.155 247.112,259.947 242.299,261.551 C237.487,263.155 237.487,256.096 229.465,261.551 C221.444,267.005 213.422,276.310 210.214,283.369 C207.005,290.428 213.743,288.824 216.631,289.786 C219.519,290.749 219.840,287.219 221.765,287.219 C223.690,287.219 219.198,288.503 224.332,289.786 C229.465,291.070 233.957,289.786 242.299,292.353 C250.642,294.920 250.000,295.561 257.701,300.053 C265.401,304.545 264.439,302.299 273.102,310.321 C281.765,318.342 286.898,322.834 292.353,332.139 C297.807,341.444 296.524,340.802 294.920,347.540 C293.316,354.278 292.032,354.920 285.936,359.091 C279.840,363.262 275.989,361.337 270.535,364.225 C265.080,367.112 264.118,367.433 264.118,370.642 C264.118,373.850 259.305,375.455 270.535,377.059 C281.765,378.663 298.770,377.701 309.037,377.059 C319.305,376.417 308.396,375.134 311.604,374.492 C314.813,373.850 316.417,377.380 321.872,374.492 C327.326,371.604 328.610,369.679 333.422,362.941 C338.235,356.203 339.198,354.599 341.123,347.540 C343.048,340.481 344.973,341.123 341.123,334.706 C337.273,328.289 330.214,326.364 325.722,321.872 C321.230,317.380 321.872,319.947 323.155,316.738 C324.439,313.529 332.781,314.813 330.856,309.037 C328.930,303.262 319.305,298.770 315.455,293.636 C311.604,288.503 317.059,291.390 315.455,288.503 C313.850,285.615 311.283,283.048 309.037,282.086 C306.791,281.123 309.679,284.011 306.471,284.652 C303.262,285.294 300.695,285.936 296.203,284.652 C291.711,283.369 291.390,282.406 288.503,279.519 C285.615,276.631 286.898,286.257 284.652,273.102 C282.406,259.947 282.086,241.016 279.519,226.898 C276.952,212.781 276.952,226.257 274.385,216.631 C271.818,207.005 272.460,200.588 269.251,188.396 C266.043,176.203 264.118,178.128 261.551,167.861 C258.984,157.594 260.267,153.102 258.984,147.326 C257.701,141.551 257.059,149.893 256.417,144.759 C255.775,139.626 257.059,131.925 256.417,126.791 C255.775,121.658 253.850,133.209 253.850,124.225 C253.850,115.241 252.567,106.898 256.417,90.856 C260.267,74.813 261.230,72.567 269.251,60.053 C277.273,47.540 277.273,49.465 288.503,40.802 C299.733,32.139 305.829,29.251 314.171,25.401 C322.513,21.551 317.380,26.684 321.872,25.401 C326.364,24.118 327.005,21.551 332.139,20.267 C337.273,18.984 339.198,20.909 342.406,20.267 C345.615,19.626 332.781,17.701 344.973,17.701 C357.166,17.701 370.642,15.134 391.176,20.267 C411.711,25.401 410.749,26.364 427.112,38.235 C443.476,50.107 442.834,47.540 456.631,67.754 C470.428,87.968 475.882,104.332 482.299,119.091 C488.717,133.850 481.016,121.658 482.299,126.791 C483.583,131.925 486.150,133.209 487.433,139.626 C488.717,146.043 486.791,148.610 487.433,152.460 C488.075,156.310 489.358,141.551 490.000,155.027 C490.642,168.503 490.642,192.888 490.000,206.364 C489.358,219.840 488.717,201.872 487.433,208.930 C486.150,215.989 487.433,222.406 484.866,234.599 C482.299,246.791 484.866,241.016 477.166,257.701 C469.465,274.385 469.786,279.840 454.064,301.337 C438.342,322.834 426.150,332.460 414.278,343.690 C402.406,354.920 412.353,342.406 406.578,346.257 C400.802,350.107 402.727,352.032 391.176,359.091 C379.626,366.150 369.358,370.642 360.374,374.492 C351.390,378.342 360.374,372.567 355.241,374.492 C350.107,376.417 345.615,380.267 339.840,382.193 C334.064,384.118 344.973,372.567 332.139,382.193 C319.305,391.818 309.037,405.294 288.503,420.695 C267.968,436.096 259.626,438.021 250.000,443.797 C240.374,449.572 251.604,444.759 250.000,443.797Z M 197.380,352.674 C198.663,351.390 204.439,352.674 202.513,347.540 C200.588,342.406 193.529,342.406 189.679,332.139 C185.829,321.872 184.545,316.738 187.112,306.471 C189.679,296.203 198.342,296.524 199.947,291.070 C201.551,285.615 197.701,286.898 193.529,284.652 C189.358,282.406 190.642,287.540 183.262,282.086 C175.882,276.631 169.465,271.497 164.011,262.834 C158.556,254.171 159.840,251.604 161.444,247.433 C163.048,243.262 167.861,244.866 170.428,246.150 C172.995,247.433 168.503,247.433 171.711,252.567 C174.920,257.701 177.807,261.872 183.262,266.684 C188.717,271.497 188.396,270.535 193.529,271.818 C198.663,273.102 199.626,273.422 203.797,271.818 C207.968,270.214 211.176,269.572 210.214,265.401 C209.251,261.230 202.513,258.984 199.947,255.134 C197.380,251.283 198.984,252.246 199.947,250.000 C200.909,247.754 198.342,245.829 203.797,246.150 C209.251,246.471 214.706,250.000 221.765,251.283 C228.824,252.567 227.861,252.888 232.032,251.283 C236.203,249.679 237.487,252.246 238.449,244.866 C239.412,237.487 237.166,228.182 235.882,221.765 C234.599,215.348 233.957,223.690 233.316,219.198 C232.674,214.706 233.957,208.289 233.316,203.797 C232.674,199.305 231.390,216.631 230.749,201.230 C230.107,185.829 231.390,157.594 230.749,142.193 C230.107,126.791 228.824,149.893 228.182,139.626 C227.540,129.358 228.824,111.390 228.182,101.123 C227.540,90.856 226.257,101.123 225.615,98.556 C224.973,95.989 229.465,100.481 225.615,90.856 C221.765,81.230 220.802,73.850 210.214,60.053 C199.626,46.257 197.701,44.973 183.262,35.668 C168.824,26.364 171.070,26.043 152.460,22.834 C133.850,19.626 120.374,22.193 108.824,22.834 C97.273,23.476 108.824,24.759 106.257,25.401 C103.690,26.043 106.257,22.834 98.556,25.401 C90.856,27.968 85.080,30.535 75.455,35.668 C65.829,40.802 70.000,36.631 60.053,45.936 C50.107,55.241 44.332,61.016 35.668,72.888 C27.005,84.759 28.610,83.797 25.401,93.422 C22.193,103.048 24.118,106.257 22.834,111.390 C21.551,116.524 20.909,103.048 20.267,113.957 C19.626,124.866 19.626,144.118 20.267,155.027 C20.909,165.936 22.193,153.102 22.834,157.594 C23.476,162.086 20.267,161.444 22.834,172.995 C25.401,184.545 30.535,194.171 33.102,203.797 C35.668,213.422 27.968,198.663 33.102,211.497 C38.235,224.332 44.652,239.091 53.636,255.134 C62.620,271.176 57.166,262.513 69.037,275.668 C80.909,288.824 81.551,292.032 101.123,307.754 C120.695,323.476 134.492,330.856 147.326,338.556 C160.160,346.257 146.043,335.989 152.460,338.556 C158.877,341.123 161.765,345.294 172.995,348.824 C184.225,352.353 191.283,351.711 197.380,352.674 C203.476,353.636 196.096,353.957 197.380,352.674Z M 356.524,362.941 C365.829,358.128 373.209,359.091 393.743,343.690 C414.278,328.289 426.791,313.850 438.663,301.337 C450.535,288.824 438.021,298.128 441.230,293.636 C444.439,289.144 445.722,292.353 451.497,283.369 C457.273,274.385 460.481,267.326 464.332,257.701 C468.182,248.075 464.973,250.000 466.898,244.866 C468.824,239.733 470.107,244.225 472.032,237.166 C473.957,230.107 473.316,222.406 474.599,216.631 C475.882,210.856 476.524,218.556 477.166,214.064 C477.807,209.572 476.524,203.155 477.166,198.663 C477.807,194.171 479.091,204.439 479.733,196.096 C480.374,187.754 480.374,173.636 479.733,165.294 C479.091,156.952 478.449,170.428 477.166,162.727 C475.882,155.027 477.166,147.326 474.599,134.492 C472.032,121.658 474.599,127.433 466.898,111.390 C459.198,95.348 456.952,87.326 443.797,70.321 C430.642,53.316 426.791,52.674 414.278,43.369 C401.765,34.064 405.294,36.310 393.743,33.102 C382.193,29.893 375.134,31.818 368.075,30.535 C361.016,29.251 375.134,27.326 365.508,27.968 C355.882,28.610 345.615,28.610 329.572,33.102 C313.529,37.594 314.492,36.631 301.337,45.936 C288.182,55.241 284.973,60.374 276.952,70.321 C268.930,80.267 271.176,79.305 269.251,85.722 C267.326,92.139 269.893,92.781 269.251,95.989 C268.610,99.198 266.684,85.722 266.684,98.556 C266.684,111.390 267.968,134.492 269.251,147.326 C270.535,160.160 271.176,146.684 271.818,149.893 C272.460,153.102 270.535,155.027 271.818,160.160 C273.102,165.294 275.668,165.936 276.952,170.428 C278.235,174.920 275.668,173.636 276.952,178.128 C278.235,182.620 280.160,181.337 282.086,188.396 C284.011,195.455 282.727,199.305 284.652,206.364 C286.578,213.422 287.219,202.513 289.786,216.631 C292.353,230.749 291.390,249.037 294.920,262.834 C298.449,276.631 299.733,269.572 303.904,271.818 C308.075,274.064 307.754,273.102 311.604,271.818 C315.455,270.535 314.171,268.610 319.305,266.684 C324.439,264.759 328.610,262.513 332.139,264.118 C335.668,265.722 335.027,268.930 333.422,273.102 C331.818,277.273 327.647,277.594 325.722,280.802 C323.797,284.011 324.118,283.048 325.722,285.936 C327.326,288.824 327.326,291.390 332.139,292.353 C336.952,293.316 338.877,293.316 344.973,289.786 C351.070,286.257 353.636,282.406 356.524,278.235 C359.412,274.064 354.920,276.631 356.524,273.102 C358.128,269.572 360.053,266.364 362.941,264.118 C365.829,261.872 365.829,263.155 368.075,264.118 C370.321,265.080 371.604,264.439 371.925,267.968 C372.246,271.497 371.925,272.460 369.358,278.235 C366.791,284.011 370.000,283.369 361.658,291.070 C353.316,298.770 338.556,298.770 335.989,309.037 C333.422,319.305 347.540,324.439 351.390,332.139 C355.241,339.840 350.749,337.273 351.390,339.840 C352.032,342.406 354.599,337.914 353.957,342.406 C353.316,346.898 348.182,352.674 348.824,357.807 C349.465,362.941 354.599,361.658 356.524,362.941 C358.449,364.225 347.219,367.754 356.524,362.941Z M 172.995,181.979 C168.503,181.979 160.160,182.620 155.027,181.979 C149.893,181.337 154.385,180.053 152.460,179.412 C150.535,178.770 149.893,180.053 147.326,179.412 C144.759,178.770 146.364,180.374 142.193,176.845 C138.021,173.316 134.171,170.749 130.642,165.294 C127.112,159.840 129.358,158.235 128.075,155.027 C126.791,151.818 126.150,154.385 125.508,152.460 C124.866,150.535 126.150,149.251 125.508,147.326 C124.866,145.401 123.583,149.251 122.941,144.759 C122.299,140.267 121.979,134.171 122.941,129.358 C123.904,124.545 125.187,126.471 126.791,125.508 C128.396,124.545 127.112,123.262 129.358,125.508 C131.604,127.754 134.813,130.963 135.775,134.492 C136.738,138.021 133.209,137.701 133.209,139.626 C133.209,141.551 134.492,138.342 135.775,142.193 C137.059,146.043 134.171,148.289 138.342,155.027 C142.513,161.765 147.647,165.615 152.460,169.144 C157.273,172.674 155.668,168.503 157.594,169.144 C159.519,169.786 156.310,171.711 160.160,171.711 C164.011,171.711 167.540,172.032 172.995,169.144 C178.449,166.257 179.091,164.973 181.979,160.160 C184.866,155.348 183.262,153.102 184.545,149.893 C185.829,146.684 186.471,149.893 187.112,147.326 C187.754,144.759 186.150,142.513 187.112,139.626 C188.075,136.738 188.396,135.775 190.963,135.775 C193.529,135.775 195.775,135.455 197.380,139.626 C198.984,143.797 198.021,148.610 197.380,152.460 C196.738,156.310 195.455,152.460 194.813,155.027 C194.171,157.594 197.701,157.273 194.813,162.727 C191.925,168.182 188.717,172.032 183.262,176.845 C177.807,181.658 175.561,180.695 172.995,181.979 C170.428,183.262 177.487,181.979 172.995,181.979Z M 342.406,187.112 C338.556,187.112 331.497,187.754 327.005,187.112 C322.513,186.471 326.364,185.187 324.439,184.545 C322.513,183.904 325.401,190.000 319.305,184.545 C313.209,179.091 305.508,169.465 300.053,162.727 C294.599,155.989 298.128,161.444 297.487,157.594 C296.845,153.743 295.241,150.214 297.487,147.326 C299.733,144.439 303.262,144.759 306.471,146.043 C309.679,147.326 309.358,149.572 310.321,152.460 C311.283,155.348 306.150,152.139 310.321,157.594 C314.492,163.048 318.984,170.107 327.005,174.278 C335.027,178.449 335.668,177.166 342.406,174.278 C349.144,171.390 350.428,166.898 353.957,162.727 C357.487,158.556 355.882,165.936 356.524,157.594 C357.166,149.251 354.278,136.738 356.524,129.358 C358.770,121.979 362.299,122.299 365.508,128.075 C368.717,133.850 369.037,145.722 369.358,152.460 C369.679,159.198 368.075,150.535 366.791,155.027 C365.508,159.519 367.754,163.690 364.225,170.428 C360.695,177.166 358.128,177.807 352.674,181.979 C347.219,186.150 344.973,185.829 342.406,187.112 C339.840,188.396 346.257,187.112 342.406,187.112Z M 261.551,355.241 C265.080,354.278 270.535,353.957 275.668,351.390 C280.802,348.824 280.481,348.503 282.086,344.973 C283.690,341.444 287.540,344.652 282.086,337.273 C276.631,329.893 271.497,324.118 260.267,315.455 C249.037,306.791 244.866,305.829 237.166,302.620 C229.465,299.412 232.032,303.262 229.465,302.620 C226.898,301.979 232.032,300.695 226.898,300.053 C221.765,299.412 216.310,297.166 208.930,300.053 C201.551,302.941 199.626,304.866 197.380,311.604 C195.134,318.342 197.380,321.230 199.947,327.005 C202.513,332.781 205.080,330.856 207.647,334.706 C210.214,338.556 206.043,336.952 210.214,342.406 C214.385,347.861 211.497,353.316 224.332,356.524 C237.166,359.733 252.246,355.561 261.551,355.241 C270.856,354.920 258.021,356.203 261.551,355.241Z" fill="#8aaa8d" fill-rule="evenodd" stroke="none"/>
</svg>