<svg version="1.1" id="Layer_1" xmlns="http://www.w3.org/2000/svg" xmlns:xlink="http://www.w3.org/1999/xlink" x="0px" y="0px"
	 width="100%" viewBox="315 158 390 382" enable-background="new 0 0 1024 784" xml:space="preserve">
<path fill="#000000" opacity="1.000000" stroke="none" 
	d="
M491.783936,180.637726 
	C516.273621,178.257080 539.927063,180.503677 562.598816,188.753738 
	C624.649658,211.333450 663.426514,255.420166 674.302002,320.211456 
	C684.906189,383.386810 664.223633,437.156036 614.566650,478.739197 
	C588.643372,500.447449 558.521179,512.681091 525.014404,515.950928 
	C493.033325,519.071838 462.196808,514.174133 433.412537,499.317688 
	C428.213531,496.634369 423.628601,496.466675 418.231842,498.024353 
	C395.037170,504.719208 371.771912,511.170410 348.510925,517.633301 
	C346.031036,518.322327 343.581268,519.760498 340.285248,518.632019 
	C340.629242,512.196045 342.852692,506.106964 344.437469,499.957825 
	C349.915558,478.701691 355.674713,457.517792 361.386169,436.322357 
	C362.250031,433.116486 361.138885,430.493774 359.670990,427.791260 
	C350.357697,410.645111 343.801910,392.453064 341.536163,373.090271 
	C334.746857,315.069672 351.339783,265.062561 394.344574,224.783646 
	C418.676575,201.993958 447.596252,187.982422 480.472107,182.252823 
	C484.075287,181.624847 487.714966,181.206223 491.783936,180.637726 
M630.194458,278.257751 
	C605.102478,237.210861 569.345520,213.130829 520.813293,208.902435 
	C489.663055,206.188446 460.883514,213.074554 434.430328,229.436905 
	C368.070190,270.483276 348.035034,359.218933 390.257843,424.627625 
	C392.247955,427.710510 392.661255,430.548431 391.684753,434.030792 
	C388.089874,446.850281 384.675446,459.720703 381.248688,472.586731 
	C380.757782,474.429871 379.585693,476.334198 381.107697,478.327789 
	C383.356079,478.781372 385.335083,477.724335 387.382019,477.155914 
	C400.057587,473.635925 412.751312,470.175690 425.373535,466.472351 
	C428.898743,465.438049 431.752747,466.006866 434.831787,467.820923 
	C439.700836,470.689636 444.650970,473.501862 449.813904,475.777435 
	C481.767120,489.860870 514.628662,493.093140 548.232483,482.694305 
	C589.743774,469.848450 620.339539,443.748901 637.165588,403.690887 
	C654.892822,361.487640 651.991272,319.472534 630.194458,278.257751 
z"/>
<path fill="#000000" opacity="1.000000" stroke="none" 
	d="
M486.934174,364.064575 
	C498.321106,374.810944 510.337891,383.820526 525.408325,388.054474 
	C529.434509,389.185669 532.240723,388.078156 534.582520,385.018341 
	C537.518005,381.182861 540.310120,377.237152 543.265320,373.417358 
	C547.355225,368.131042 550.715210,366.970184 556.738892,369.609528 
	C567.718994,374.420593 578.613708,379.443573 589.393921,384.686829 
	C595.155029,387.488892 596.997559,392.040894 595.840881,398.406006 
	C592.500977,416.785339 577.074951,430.029297 558.282532,430.236145 
	C537.492920,430.464996 518.801147,422.993500 500.937622,413.359344 
	C471.411621,397.435364 448.974030,374.024902 432.270935,345.251129 
	C422.571594,328.542450 417.511383,310.628937 424.642670,291.246490 
	C429.491272,278.068207 442.707703,268.069733 455.473541,267.713226 
	C460.050140,267.585419 463.255524,269.183411 465.130341,273.266327 
	C470.546661,285.061554 475.945190,296.865631 481.240204,308.715576 
	C483.265900,313.248962 481.615143,317.270050 478.601776,320.695160 
	C476.301727,323.309509 473.559631,325.529816 471.090668,328.001770 
	C466.580139,332.517731 466.080200,335.349182 469.032318,340.930145 
	C473.597290,349.560150 480.107971,356.717865 486.934174,364.064575 
z"/>
</svg>